# xmcd
#
# Track frame offsets:
#	150
#	20563
#	38518
#	61946
#	87478
#	104288
#	120316
#	140791
#	177488
#	198051
#	225762
#
# Disc length: 3272 seconds
#
# Revision: 1
# Processed by: cddbd v1.4PL0 Copyright (c) Steve Scherf et al.
# Submitted via: audiograbber 1.81.03
#
DISCID=850cc60b
DTITLE=Max Schultz - Blues Up!
DYEAR=1900
DGENRE=
TTITLE0=Mr. Day
TTITLE1=New Orleans
TTITLE2=Blues Up!
TTITLE3=Walkin' and Talkin'
TTITLE4=Baby (You've Got What It Takes)
TTITLE5=Mr. Syms
TTITLE6=Pierre
TTITLE7=Excuse Me Mr. Sifredi
TTITLE8=A Strange Hat
TTITLE9=The Howler
TTITLE10=Cottonfield
EXTD=
EXTT0=
EXTT1=
EXTT2=
EXTT3=
EXTT4=
EXTT5=
EXTT6=
EXTT7=
EXTT8=
EXTT9=
EXTT10=
PLAYORDER=
